<svg width="14" height="17" viewBox="0 0 14 17" fill="none" xmlns="http://www.w3.org/2000/svg">
<path d="M13.9015 9.42657L12.5895 7.43306C12.5214 7.31379 12.4873 7.17748 12.4702 7.04117C12.2487 4.58762 10.3234 2.62819 7.86984 2.38965C7.92095 2.9008 7.71649 3.41196 7.32461 3.75273L6.45564 4.48539L6.72826 5.59289C6.84753 6.06997 6.72826 6.56409 6.42156 6.95598C6.11487 7.33082 5.65483 7.56936 5.16071 7.56936C4.87106 7.56936 4.5814 7.50121 4.32582 7.34786L3.35463 6.75151L2.40047 7.34786C2.36639 7.38194 2.31528 7.39898 2.26416 7.41602C2.26416 7.45009 2.26416 7.46713 2.26416 7.50121C2.26416 9.18803 3.06497 10.8237 4.32582 11.8972C4.47917 12.0335 4.56436 12.2038 4.56436 12.4083V15.3389C4.56436 15.5775 4.75179 15.7649 4.97329 15.7819L9.38627 16.1568C9.65889 16.1738 9.88039 15.9694 9.88039 15.7138V13.6351C9.88039 13.4988 9.99966 13.3965 10.1189 13.3965H11.6524C12.1295 13.3965 12.5043 13.0047 12.5043 12.5446V10.4659C12.5043 10.3807 12.5725 10.2955 12.6747 10.2955H13.4244C13.8844 10.3126 14.1571 9.80141 13.9015 9.42657Z" fill="black"/>
<path d="M3.64451 5.5929L4.93944 6.37667C5.29725 6.59817 5.75729 6.27444 5.65506 5.86552L5.29725 4.4002C5.26317 4.22982 5.31429 4.04239 5.4506 3.92312L6.60922 2.93489C6.93295 2.66227 6.76256 2.13408 6.3366 2.1L4.82017 1.98073C4.64979 1.96369 4.4794 1.86146 4.41125 1.69108L3.83194 0.293915C3.66155 -0.0979716 3.11632 -0.0979716 2.94593 0.293915L2.36662 1.69108C2.29847 1.86146 2.14512 1.96369 1.9577 1.98073L0.441266 2.1C0.0153027 2.11704 -0.155083 2.64523 0.168649 2.91785L1.32727 3.90609C1.46358 4.02536 1.51469 4.21278 1.48062 4.38316L1.12281 5.86552C1.02058 6.27444 1.48062 6.59817 1.83843 6.37667L3.13336 5.5929C3.30374 5.50771 3.49116 5.50771 3.64451 5.5929Z" fill="black"/>
</svg>
