<svg width="15" height="18" viewBox="0 0 15 18" fill="none" xmlns="http://www.w3.org/2000/svg">
<path d="M13.0599 14.9338V13.571C13.0599 13.0599 12.8139 12.5678 12.3975 12.265C10.9779 11.2429 9.3123 10.6751 7.5899 10.5615V8.29023C7.5899 7.98739 7.34385 7.74133 7.04101 7.74133C6.73817 7.74133 6.49211 7.98739 6.49211 8.29023V10.5804C4.75079 10.6751 3.1041 11.2618 1.68454 12.2839C1.26814 12.5868 1.02208 13.0599 1.02208 13.5899V14.9527C0.416404 15.1798 0 15.7476 0 16.429C0 17.2997 0.700315 18 1.57098 18C2.44164 18 3.14195 17.2997 3.14195 16.429C3.14195 15.7476 2.70662 15.1798 2.11987 14.9527V13.5899C2.11987 13.4196 2.19558 13.2681 2.32808 13.1735C3.55836 12.2839 4.99684 11.7729 6.51104 11.6782V14.9527C5.90536 15.1798 5.48896 15.7476 5.48896 16.429C5.48896 17.2997 6.18927 18 7.05994 18C7.9306 18 8.63091 17.2997 8.63091 16.429C8.63091 15.7476 8.19558 15.1798 7.60883 14.9527V11.6782C9.12303 11.7729 10.5426 12.2839 11.7918 13.1735C11.9243 13.2681 12 13.4196 12 13.5899V14.9527C11.3943 15.1798 10.9779 15.7476 10.9779 16.429C10.9779 17.2997 11.6782 18 12.5489 18C13.4196 18 14.1199 17.2997 14.1199 16.429C14.082 15.7287 13.6656 15.1609 13.0599 14.9338Z" fill="black"/>
<path d="M4.61819 4.6183C4.76961 4.75079 4.84532 4.97792 4.80746 5.16719L4.39106 6.90852C4.2775 7.40063 4.80746 7.77918 5.22387 7.51419L6.73806 6.58675C6.90841 6.47319 7.13554 6.47319 7.32481 6.58675L8.83901 7.51419C9.25541 7.77918 9.78538 7.3817 9.67182 6.90852L9.25541 5.16719C9.19863 4.95899 9.27434 4.75079 9.44469 4.6183L10.7885 3.46372C11.1671 3.14196 10.9589 2.51735 10.4668 2.47949L8.68759 2.32808C8.47939 2.30915 8.29011 2.17666 8.2144 1.98738L7.53302 0.340694C7.34374 -0.113565 6.68128 -0.113565 6.49201 0.340694L5.82955 1.98738C5.75384 2.17666 5.56456 2.30915 5.35636 2.32808L3.57718 2.47949C3.08507 2.51735 2.87687 3.14196 3.25541 3.46372L4.61819 4.6183Z" fill="black"/>
</svg>
