<svg width="15" height="15" viewBox="0 0 15 15" fill="none" xmlns="http://www.w3.org/2000/svg">
<path d="M0.639833 12.2548H7.74241C7.68577 11.8663 7.68702 11.4716 7.74614 11.0835H5.3097V8.97351H7.99054V10.1952C8.20524 9.666 8.53072 9.18888 8.94511 8.79589C9.3595 8.4029 9.8532 8.10316 10.393 7.91679H9.38595V5.80684H12.0668V7.71973C12.4928 7.76063 12.9094 7.8705 13.3002 8.04504V0.639833C13.3002 0.47014 13.2328 0.307397 13.1128 0.187405C12.9928 0.0674134 12.8301 1.7681e-06 12.6604 0H0.639833C0.470139 0 0.307395 0.0674109 0.187403 0.187403C0.0674109 0.307395 0 0.470139 0 0.639833V11.615C4.42027e-07 11.7847 0.0674115 11.9474 0.187403 12.0674C0.307395 12.1874 0.470139 12.2548 0.639833 12.2548ZM9.38595 2.64017H12.0668V4.75012H9.38595V2.64017ZM5.30971 2.64017H7.99054V4.75012H5.30971V2.64017ZM5.30971 5.80684H7.99054V7.91679H5.30971V5.80684ZM1.23346 2.64017H3.91429V4.75012H1.23346V2.64017ZM1.23346 5.80684H3.91429V7.91679H1.23346V5.80684ZM1.23346 8.97351H3.91429V11.0835H1.23346V8.97351ZM11.6838 8.36756C11.0279 8.36756 10.3867 8.56206 9.84139 8.92645C9.29604 9.29084 8.87099 9.80876 8.61999 10.4147C8.369 11.0207 8.30333 11.6875 8.43128 12.3307C8.55924 12.974 8.87508 13.5649 9.33886 14.0287C9.80265 14.4925 10.3935 14.8083 11.0368 14.9363C11.6801 15.0642 12.3469 14.9986 12.9528 14.7476C13.5588 14.4966 14.0767 14.0715 14.4411 13.5262C14.8055 12.9808 15 12.3397 15 11.6838C15 11.2483 14.9142 10.8171 14.7476 10.4147C14.5809 10.0124 14.3366 9.6468 14.0287 9.33886C13.7208 9.03092 13.3552 8.78665 12.9528 8.61999C12.5505 8.45334 12.1193 8.36756 11.6838 8.36756L11.6838 8.36756ZM13.419 12.0174H11.684C11.5956 12.0174 11.5108 11.9823 11.4483 11.9198C11.3858 11.8573 11.3507 11.7725 11.3507 11.6841V9.44905C11.3507 9.36064 11.3858 9.27586 11.4483 9.21334C11.5108 9.15083 11.5956 9.11571 11.684 9.11571C11.7724 9.11571 11.8572 9.15083 11.9197 9.21334C11.9822 9.27586 12.0174 9.36064 12.0174 9.44905V11.3507H13.419C13.5075 11.3507 13.5922 11.3859 13.6547 11.4484C13.7173 11.5109 13.7524 11.5957 13.7524 11.6841C13.7524 11.7725 13.7173 11.8573 13.6547 11.9198C13.5922 11.9823 13.5075 12.0174 13.419 12.0174L13.419 12.0174Z" fill="black"/>
</svg>
